<?xml version="1.0" encoding="UTF-8" standalone="no"?>
<!-- Created with Inkscape (http://www.inkscape.org/) -->

<svg
   width="50"
   height="50"
   viewBox="0 0 13.229166 13.229167"
   version="1.1"
   id="svg5"
   inkscape:version="1.2.2 (b0a8486541, 2022-12-01)"
   sodipodi:docname="farm.svg"
   xmlns:inkscape="http://www.inkscape.org/namespaces/inkscape"
   xmlns:sodipodi="http://sodipodi.sourceforge.net/DTD/sodipodi-0.dtd"
   xmlns="http://www.w3.org/2000/svg"
   xmlns:svg="http://www.w3.org/2000/svg">
  <sodipodi:namedview
     id="namedview7"
     pagecolor="#ffffff"
     bordercolor="#000000"
     borderopacity="0.25"
     inkscape:showpageshadow="2"
     inkscape:pageopacity="0.0"
     inkscape:pagecheckerboard="0"
     inkscape:deskcolor="#d1d1d1"
     inkscape:document-units="px"
     showgrid="false"
     inkscape:zoom="24.601796"
     inkscape:cx="20.791165"
     inkscape:cy="33.310577"
     inkscape:window-width="1920"
     inkscape:window-height="1012"
     inkscape:window-x="0"
     inkscape:window-y="0"
     inkscape:window-maximized="1"
     inkscape:current-layer="layer1" />
  <defs
     id="defs2" />
  <g
     inkscape:label="Layer 1"
     inkscape:groupmode="layer"
     id="layer1">
    <rect
       style="fill:#c0bfbc;stroke:#000000;stroke-width:0.42333333;stroke-linecap:round;stroke-dasharray:none;stop-color:#000000"
       id="rect234"
       width="4.1057405"
       height="8.9438362"
       x="0.26458332"
       y="4.0207472" />
    <path
       id="circle1028"
       style="fill:#2ec27e;stroke:#000000;stroke-width:0.42333333;stroke-linecap:round;stroke-dasharray:none;stop-color:#000000"
       d="M 2.317688 1.9078939 A 2.0528703 2.0528703 0 0 0 0.26458333 3.9604817 A 2.0528703 2.0528703 0 0 0 0.26665039 4.0209431 L 4.3682088 4.0209431 A 2.0528703 2.0528703 0 0 0 4.3702758 3.9604817 A 2.0528703 2.0528703 0 0 0 2.317688 1.9078939 z " />
    <rect
       style="fill:#000000;stroke:none;stroke-width:0.423333;stroke-linecap:round;stroke-dasharray:none;stop-color:#000000"
       id="rect1297"
       width="0.63398015"
       height="1.1137005"
       x="11.814056"
       y="4.6383257" />
    <rect
       style="fill:#c0bfbc;stroke:#000000;stroke-width:0.423333;stroke-linecap:round;stroke-dasharray:none;stop-color:#000000"
       id="rect1331"
       width="8.5934677"
       height="5.3496284"
       x="4.3703685"
       y="7.614954" />
    <rect
       style="fill:#2ec27e;stroke:#000000;stroke-width:0.423334;stroke-linecap:round;stroke-dasharray:none;stop-color:#000000"
       id="rect1301"
       width="3.2782974"
       height="1.6660728"
       x="7.0283418"
       y="11.298511"
       ry="0.26458332" />
    <path
       style="fill:none;stroke:#000000;stroke-width:0.423333;stroke-linecap:round;stroke-dasharray:none;stop-color:#000000"
       d="m 4.3703689,7.6149564 8.5934671,-2.1e-6"
       id="path1303" />
    <path
       id="path1333"
       style="fill:#99c1f1;stroke:#000000;stroke-width:0.423333;stroke-linecap:round;stroke-dasharray:none;stop-color:#000000"
       d="m 8.6781546,4.5315532 a 4.3072939,2.9955904 0 0 0 -4.3077857,2.9951782 4.3072939,2.9955904 0 0 0 0.00434,0.088225 h 8.6058071 a 4.3072939,2.9955904 0 0 0 0.0043,-0.088225 4.3072939,2.9955904 0 0 0 -4.3066991,-2.9951782 z" />
    <path
       id="path1692"
       style="fill:#000000;stroke:none;stroke-width:0.423333;stroke-linecap:round;stroke-dasharray:none;stop-color:#000000;fill-opacity:0.26799503"
       d="M 8.6780232 4.5315063 A 4.3072939 2.9955904 0 0 0 7.8822061 4.5836995 A 4.3072939 2.9955904 0 0 1 11.397237 7.5266723 A 4.3072939 2.9955904 0 0 1 11.393103 7.615039 L 12.980603 7.615039 A 4.3072939 2.9955904 0 0 0 12.984737 7.5266723 A 4.3072939 2.9955904 0 0 0 8.6780232 4.5315063 z " />
    <rect
       style="fill:#000000;stroke:none;stroke-width:0.423333;stroke-linecap:round;stroke-dasharray:none;stop-color:#000000"
       id="rect1336"
       width="0.63398015"
       height="1.1137005"
       x="10.77009"
       y="3.9664488" />
    <rect
       style="fill:#99c1f1;stroke:#000000;stroke-width:0.132292;stroke-linecap:round;stroke-dasharray:none;stop-color:#000000"
       id="rect1427"
       width="3.477375"
       height="1.1137005"
       x="5.1340714"
       y="8.6156902"
       ry="0.13229166" />
    <rect
       style="fill:#99c1f1;stroke:#000000;stroke-width:0.132292;stroke-linecap:round;stroke-dasharray:none;stop-color:#000000"
       id="rect1429"
       width="0.63398015"
       height="1.1137005"
       x="11.043327"
       y="8.6156902"
       ry="0.13229166" />
    <rect
       style="fill:#99c1f1;stroke:#000000;stroke-width:0.132292;stroke-linecap:round;stroke-dasharray:none;stop-color:#000000"
       id="rect1431"
       width="0.63398015"
       height="1.1137005"
       x="2.7528138"
       y="4.9726954"
       ry="0.13229166" />
    <rect
       style="fill:#99c1f1;stroke:#000000;stroke-width:0.132292;stroke-linecap:round;stroke-dasharray:none;stop-color:#000000"
       id="rect1433"
       width="0.63398015"
       height="1.1137005"
       x="1.2852917"
       y="7.8498211"
       ry="0.13229166" />
    <rect
       style="fill:#2ec27e;stroke:#000000;stroke-width:0.423334;stroke-linecap:round;stroke-dasharray:none;stop-color:#000000"
       id="rect1435"
       width="1.4932911"
       height="1.6660728"
       x="1.5914565"
       y="11.298511"
       ry="0.26458332" />
    <path
       sodipodi:type="star"
       style="fill:none;stroke:#000000;stroke-width:0.432949;stroke-linecap:round;stroke-dasharray:none;stop-color:#000000"
       id="path1650"
       inkscape:flatsided="true"
       sodipodi:sides="3"
       sodipodi:cx="6.4812994"
       sodipodi:cy="1.6962273"
       sodipodi:r1="2.0017531"
       sodipodi:r2="1.0008765"
       sodipodi:arg1="0.52359878"
       sodipodi:arg2="1.5707963"
       inkscape:rounded="0"
       inkscape:randomized="0"
       d="m 8.2148684,2.6971039 -3.467138,0 1.733569,-3.00262968 z"
       inkscape:transform-center-y="-0.47845498"
       transform="matrix(1,0,0,0.95607184,2.1962931,5.0334771)" />
    <path
       style="fill:none;stroke:#000000;stroke-width:0.423333;stroke-linecap:round;stroke-dasharray:none;stop-color:#000000"
       d="M 5.385457,5.5955209 7.055344,7.4032878 8.6775924,4.7413724 10.292508,7.415616 12.131046,5.752026"
       id="path1662"
       sodipodi:nodetypes="ccccc" />
    <rect
       style="fill:#99c1f1;stroke:#000000;stroke-width:0.132292;stroke-linecap:round;stroke-dasharray:none;stop-color:#000000"
       id="rect1811"
       width="0.63398015"
       height="1.1137005"
       x="9.8670807"
       y="8.6156902"
       ry="0.13229166" />
  </g>
</svg>
