<?xml version="1.0" encoding="UTF-8" standalone="no"?>
<!-- Created with Inkscape (http://www.inkscape.org/) -->

<svg
   width="50"
   height="50"
   viewBox="0 0 13.229166 13.229167"
   version="1.1"
   id="svg5"
   inkscape:version="1.2.2 (b0a8486541, 2022-12-01)"
   sodipodi:docname="farm.svg"
   inkscape:export-filename="farm.png"
   inkscape:export-xdpi="96"
   inkscape:export-ydpi="96"
   xmlns:inkscape="http://www.inkscape.org/namespaces/inkscape"
   xmlns:sodipodi="http://sodipodi.sourceforge.net/DTD/sodipodi-0.dtd"
   xmlns="http://www.w3.org/2000/svg"
   xmlns:svg="http://www.w3.org/2000/svg">
  <sodipodi:namedview
     id="namedview7"
     pagecolor="#ffffff"
     bordercolor="#000000"
     borderopacity="0.25"
     inkscape:showpageshadow="2"
     inkscape:pageopacity="0.0"
     inkscape:pagecheckerboard="0"
     inkscape:deskcolor="#d1d1d1"
     inkscape:document-units="px"
     showgrid="false"
     inkscape:zoom="17.396097"
     inkscape:cx="15.089592"
     inkscape:cy="26.988813"
     inkscape:window-width="1920"
     inkscape:window-height="1012"
     inkscape:window-x="0"
     inkscape:window-y="0"
     inkscape:window-maximized="1"
     inkscape:current-layer="layer1"
     showguides="true" />
  <defs
     id="defs2" />
  <g
     inkscape:label="Layer 1"
     inkscape:groupmode="layer"
     id="layer1">
    <rect
       style="fill:#000000;stroke:none;stroke-width:0.423333;stroke-linecap:round;stroke-dasharray:none;stop-color:#000000"
       id="rect1336"
       width="0.63398015"
       height="1.1137005"
       x="10.486846"
       y="2.8632538" />
    <ellipse
       style="fill:#2ec27e;fill-opacity:1;stroke:#000000;stroke-width:0.423334;stroke-linecap:round;stop-color:#000000"
       id="path384"
       cx="2.3013196"
       cy="3.1455824"
       rx="2.0896523"
       ry="2.0939817" />
    <path
       id="ellipse1123"
       style="fill:#000000;fill-opacity:0.38743168;stroke:none;stroke-width:0.423334;stroke-linecap:round;stop-color:#000000"
       d="M 2.3011515 1.0516154 A 2.0896523 2.0939817 0 0 0 1.7750854 1.1208618 A 2.0896523 2.0939817 0 0 1 3.3326131 3.1455444 A 2.0896523 2.0939817 0 0 1 1.7719848 5.1697102 A 2.0896523 2.0939817 0 0 0 2.3011515 5.2394734 A 2.0896523 2.0939817 0 0 0 4.3909464 3.1455444 A 2.0896523 2.0939817 0 0 0 2.3011515 1.0516154 z " />
    <rect
       style="fill:#ffffff;stroke:#000000;stroke-width:0.423333;stroke-linecap:round;stroke-dasharray:none;stop-color:#000000"
       id="rect234"
       width="4.179306"
       height="8.8203173"
       x="0.21166649"
       y="3.357249" />
    <rect
       style="fill:#000000;stroke:none;stroke-width:0.423333;stroke-linecap:round;stroke-dasharray:none;stop-color:#000000"
       id="rect1297"
       width="0.63398015"
       height="1.1137005"
       x="11.698827"
       y="3.5822299" />
    <ellipse
       style="fill:#2ec27e;fill-opacity:1;stroke:#000000;stroke-width:0.423334;stroke-linecap:round;stop-color:#000000"
       id="ellipse956"
       cx="8.9159031"
       cy="6.50067"
       rx="4.1015968"
       ry="3.1434202" />
    <path
       id="ellipse1003"
       style="fill:#000000;fill-opacity:0.32834;stroke:none;stroke-width:0.423334;stroke-linecap:round;stop-color:#000000"
       d="m 8.9157348,3.3572262 a 4.1015968,3.1434202 0 0 0 -0.7880656,0.060461 4.1015968,3.1434202 0 0 1 3.3021238,3.0830159 4.1015968,3.1434202 0 0 1 -3.3078082,3.0824993 4.1015968,3.1434202 0 0 0 0.79375,0.06098 A 4.1015968,3.1434202 0 0 0 13.017293,6.5007035 4.1015968,3.1434202 0 0 0 8.9157348,3.3572262 Z" />
    <rect
       style="fill:#ffffff;stroke:#000000;stroke-width:0.423333;stroke-linecap:round;stroke-dasharray:none;stop-color:#000000"
       id="rect1331"
       width="8.6265268"
       height="5.4025459"
       x="4.3909726"
       y="6.7750206" />
    <path
       id="rect1301"
       style="fill:#2ec27e;stroke:#000000;stroke-width:0.423334;stroke-linecap:round;stroke-dasharray:none;stop-color:#000000"
       d="m 7.4625935,10.458601 c -0.22024,0 -0.3973918,0.177152 -0.3973918,0.397392 v 1.321366 h 3.2783533 v -1.321366 c 0,-0.22024 -0.177669,-0.397392 -0.397909,-0.397392 z" />
    <path
       id="rect1435"
       style="fill:#2ec27e;stroke:#000000;stroke-width:0.423334;stroke-linecap:round;stroke-dasharray:none;stop-color:#000000"
       d="m 1.9352824,10.511311 c -0.2109291,0 -0.3808553,0.169926 -0.3808553,0.380855 v 1.285193 h 1.4934488 v -1.285193 c 0,-0.210929 -0.1699262,-0.380855 -0.3808553,-0.380855 z" />
    <path
       sodipodi:type="star"
       style="fill:none;stroke:#000000;stroke-width:0.418232;stroke-linecap:round;stroke-dasharray:none;stop-color:#000000"
       id="path1650"
       inkscape:flatsided="true"
       sodipodi:sides="3"
       sodipodi:cx="6.4812994"
       sodipodi:cy="1.6962273"
       sodipodi:r1="2.0017531"
       sodipodi:r2="1.0008765"
       sodipodi:arg1="0.52359878"
       sodipodi:arg2="1.5707963"
       inkscape:rounded="0"
       inkscape:randomized="0"
       d="m 8.2148684,2.6971039 -3.467138,0 1.733569,-3.00262968 z"
       inkscape:transform-center-y="-0.51272182"
       transform="matrix(1,0,0,1.0245455,2.4111319,4.0120937)" />
    <path
       id="path984"
       style="fill:none;stroke:#000000;stroke-width:0.423334;stroke-linecap:round;stroke-dasharray:none;stop-color:#000000"
       inkscape:transform-center-y="0.51272195"
       d="M 8.8180663,3.4853838 A 4.1015968,3.0807362 0 0 0 6.0456257,4.3638831 L 7.2843098,6.5616817 9.0175373,3.4853838 Z" />
    <path
       id="path986"
       style="fill:none;stroke:#000000;stroke-width:0.423334;stroke-linecap:round;stroke-dasharray:none;stop-color:#000000"
       inkscape:transform-center-y="0.51272195"
       d="m 8.8377033,3.484867 a 4.1015968,3.0807362 0 0 0 -0.051676,0.00155 L 10.518221,6.5611649 11.76569,4.3478634 A 4.1015968,3.0807362 0 0 0 9.0645629,3.484867 Z" />
    <path
       id="rect307"
       style="fill:#000000;fill-opacity:0.393229;stroke:none;stroke-width:0.423333;stroke-linecap:round;stroke-dasharray:none;stop-color:#000000"
       d="M 3.319694 3.3574178 L 3.319694 12.177551 L 4.3909464 12.177551 L 4.3909464 3.3574178 L 3.319694 3.3574178 z " />
  </g>
</svg>
