<?xml version="1.0" encoding="UTF-8" standalone="no"?>
<!-- Created with Inkscape (http://www.inkscape.org/) -->

<svg
   width="250"
   height="250"
   viewBox="0 0 66.14583 66.145835"
   version="1.1"
   id="svg13952"
   inkscape:version="1.2.2 (b0a8486541, 2022-12-01)"
   sodipodi:docname="planetsTerran.svg"
   xmlns:inkscape="http://www.inkscape.org/namespaces/inkscape"
   xmlns:sodipodi="http://sodipodi.sourceforge.net/DTD/sodipodi-0.dtd"
   xmlns="http://www.w3.org/2000/svg"
   xmlns:svg="http://www.w3.org/2000/svg">
  <sodipodi:namedview
     id="namedview13954"
     pagecolor="#ffffff"
     bordercolor="#000000"
     borderopacity="0.25"
     inkscape:showpageshadow="2"
     inkscape:pageopacity="0.0"
     inkscape:pagecheckerboard="0"
     inkscape:deskcolor="#d1d1d1"
     inkscape:document-units="px"
     showgrid="false"
     inkscape:zoom="2.174512"
     inkscape:cx="203.03406"
     inkscape:cy="118.87725"
     inkscape:window-width="1920"
     inkscape:window-height="1012"
     inkscape:window-x="0"
     inkscape:window-y="0"
     inkscape:window-maximized="1"
     inkscape:current-layer="layer2" />
  <defs
     id="defs13949" />
  <g
     inkscape:groupmode="layer"
     id="layer2"
     inkscape:label="Layer 2">
    <circle
       style="fill:#99c1f1;fill-opacity:0.25;stroke-width:0.793999;stroke-linecap:square;stop-color:#000000"
       id="path14175"
       cx="33.072918"
       cy="33.072918"
       r="33.072918" />
    <circle
       style="fill:#1a5fb4;fill-opacity:1;stroke:none;stroke-width:0.793999;stroke-linecap:square;stop-color:#000000"
       id="circle14540"
       cx="33.072918"
       cy="33.072918"
       r="29.934067" />
    <path
       id="path1381"
       style="fill:#3584e4;fill-opacity:0.999971;stroke-width:30.9941;stroke-linecap:round;stroke-linejoin:round;stop-color:#000000"
       d="M 62.954296 34.484716 C 60.916115 34.624978 58.428767 36.266648 56.498359 38.096899 C 54.434426 40.053749 52.592583 43.681899 49.757686 43.982328 C 46.922789 44.282756 43.692745 42.426305 40.576851 40.646614 C 37.460957 38.866923 34.459211 37.164106 32.080212 37.772371 C 29.701213 38.380636 28.717356 39.960042 27.92336 41.594877 C 27.129363 43.229711 26.524961 44.919924 24.905973 45.751212 C 23.286985 46.5825 21.034128 46.128776 18.932177 45.846813 C 16.830226 45.564856 14.879446 45.455 13.86427 46.973876 C 12.849094 48.492753 12.980303 50.427987 13.676168 52.314119 C 14.372032 54.200252 15.632224 56.03696 16.874939 57.359289 C 18.117654 58.681618 19.655023 59.766848 21.402828 60.441271 C 23.150632 61.115694 25.109055 61.379317 27.194205 61.058805 C 29.279355 60.738292 31.360858 58.990758 33.134411 56.756225 C 34.907963 54.521692 36.050613 53.767691 38.304121 54.348103 C 40.55763 54.928516 39.151138 56.758774 39.479243 59.400508 C 39.606848 60.427912 40.047777 61.27877 40.650231 62.011201 A 29.934067 29.934067 0 0 0 62.954296 34.484716 z " />
    <path
       id="path1262"
       style="fill:#26a269;fill-opacity:0.999971;stroke-width:30.9941;stroke-linecap:round;stroke-linejoin:round;stop-color:#000000"
       d="M 62.672143 37.53776 C 58.057327 38.261414 52.653841 46.257823 48.143831 46.220434 C 42.278084 46.171804 38.455388 40.992035 33.734375 40.513289 C 29.013361 40.034542 29.422136 45.955331 26.404073 47.761942 C 23.38601 49.568553 15.744857 45.674735 15.928743 49.160823 C 16.112629 52.64691 20.678887 57.583144 24.870833 58.338557 C 29.062779 59.09397 33.647452 49.669984 38.659655 50.374702 C 41.848573 50.823066 42.208291 56.844298 44.090848 60.902225 A 29.934067 29.934067 0 0 0 62.672143 37.53776 z " />
    <path
       id="path1317"
       style="fill:#3584e4;fill-opacity:0.999971;stroke-width:30.9941;stroke-linecap:round;stroke-linejoin:round;stop-color:#000000"
       d="M 15.589229 8.7984293 A 29.934067 29.934067 0 0 0 3.1388265 33.072916 A 29.934067 29.934067 0 0 0 9.9683837 52.083642 C 12.170958 49.468198 7.5579049 41.984431 9.8216226 40.58822 C 12.551197 38.904678 14.544257 44.215353 19.108911 42.622721 C 23.673564 41.030086 18.094423 31.770885 20.688143 26.977164 C 23.281862 22.183445 34.69003 17.433593 32.567521 14.301969 C 30.445013 11.170345 21.994719 14.12445 18.103804 11.776542 C 17.142112 11.196225 16.312881 10.097217 15.589229 8.7984293 z " />
    <path
       id="path1264"
       style="fill:#26a269;fill-opacity:0.999971;stroke-width:30.9941;stroke-linecap:round;stroke-linejoin:round;stop-color:#000000"
       d="M 12.284521 11.557434 A 29.934067 29.934067 0 0 0 3.1388265 33.072916 A 29.934067 29.934067 0 0 0 7.191809 48.107141 C 10.586022 46.751914 5.7714163 39.412217 7.8201944 38.148575 C 10.060122 36.767037 11.695614 41.125179 15.441435 39.818241 C 19.187255 38.511303 14.609037 30.913026 16.737479 26.979231 C 18.865922 23.045436 28.228 19.147655 26.486238 16.577799 C 24.744477 14.007944 17.810136 16.4323 14.617195 14.505574 C 13.706223 13.955864 12.939505 12.839308 12.284521 11.557434 z " />
    <path
       id="path1319"
       style="fill:#3584e4;fill-opacity:0.999971;stroke-width:30.994;stroke-linecap:round;stroke-linejoin:round;stop-color:#000000"
       d="M 42.648559 4.7144409 C 39.866137 7.357563 37.999236 10.736327 37.581685 13.506152 C 36.693766 19.396175 46.111669 17.671641 50.66409 21.464323 C 54.039595 24.276499 58.429595 33.778737 62.873681 35.748722 A 29.934067 29.934067 0 0 0 63.007006 33.072916 A 29.934067 29.934067 0 0 0 42.648559 4.7144409 z " />
    <path
       id="path1266"
       style="fill:#26a269;fill-opacity:0.999971;stroke-width:30.9941;stroke-linecap:round;stroke-linejoin:round;stop-color:#000000"
       d="M 44.619498 5.4580647 C 42.228718 7.7252191 40.6242 10.626132 40.265759 13.003857 C 39.50462 18.05288 47.577652 16.574515 51.480061 19.825663 C 54.639777 22.458064 58.83656 31.929676 62.998221 32.363399 A 29.934067 29.934067 0 0 0 44.619498 5.4580647 z " />
    <path
       id="path1462"
       style="fill:#ffffff;fill-opacity:0.999971;stroke-width:30.9941;stroke-linecap:round;stroke-linejoin:round;stop-color:#000000"
       d="M 33.072916 3.1388265 A 29.934067 29.934067 0 0 0 23.385136 4.7712849 C 23.44257 4.8165195 23.496216 4.8611325 23.558252 4.9071939 C 31.040109 10.462507 37.737112 11.501864 41.042456 16.447058 C 44.347799 21.392252 36.018013 24.796842 38.552168 26.604061 C 41.086324 28.411279 43.528084 24.21433 45.46079 22.154203 C 47.393497 20.094076 50.197778 18.375609 49.711177 14.527278 C 49.224575 10.678948 37.072854 8.1526648 39.692667 3.9863199 C 39.712034 3.9555208 39.729139 3.9247299 39.745377 3.8943359 A 29.934067 29.934067 0 0 0 33.072916 3.1388265 z " />
    <path
       id="path1464"
       style="fill:#ffffff;fill-opacity:0.999971;stroke-width:30.994;stroke-linecap:round;stroke-linejoin:round;stop-color:#000000"
       d="M 55.435892 29.722733 C 54.994029 29.720246 54.565912 29.734359 54.15535 29.766658 C 45.396707 30.4557 42.186303 37.243859 49.690506 35.223689 C 54.266664 33.991764 58.392261 35.7103 62.737255 36.958984 A 29.934067 29.934067 0 0 0 63.007006 33.072916 A 29.934067 29.934067 0 0 0 62.925357 30.883386 C 60.363725 30.191618 57.714328 29.73556 55.435892 29.722733 z " />
    <path
       id="path1468"
       style="fill:#ffffff;fill-opacity:0.999971;stroke-width:30.9941;stroke-linecap:round;stroke-linejoin:round;stop-color:#000000"
       d="M 33.26877 36.723339 C 32.780054 36.713515 32.244291 36.911623 31.641996 37.371879 C 26.823635 41.053924 34.609988 52.575213 41.413492 55.169242 C 45.424104 56.698401 51.200454 54.799395 55.954723 52.342541 A 29.934067 29.934067 0 0 0 61.218485 43.207181 C 56.102127 44.584593 47.806524 49.827098 43.210799 48.541739 C 37.800501 47.028556 36.689781 36.792108 33.26877 36.723339 z " />
    <path
       id="path1470"
       style="fill:#ffffff;fill-opacity:0.999971;stroke-width:30.9941;stroke-linecap:round;stroke-linejoin:round;stop-color:#000000"
       d="M 6.2233927 35.991084 C 5.2458429 36.003094 4.2620036 36.079145 3.3258951 36.225179 A 29.934067 29.934067 0 0 0 4.5206542 42.043945 C 6.7840852 41.591196 9.1484141 41.128638 10.849984 41.633634 C 15.119296 42.900692 19.62854 52.098115 22.623425 48.125227 C 25.61831 44.152339 15.982818 37.718738 11.052555 36.493379 C 9.6659185 36.148747 7.9550357 35.96981 6.2233927 35.991084 z " />
    <path
       style="fill:#ffffff;fill-opacity:0.999971;stroke-width:30.9941;stroke-linecap:round;stroke-linejoin:round;stop-color:#000000"
       d="m 6.929623,25.314542 c -1.5875181,3.353531 6.951097,5.693902 11.846055,5.665324 4.894957,-0.02858 15.381358,-2.973938 13.419885,-6.629621 -1.961474,-3.655683 -8.621757,3.026046 -12.970675,3.158746 -4.348918,0.1327 -10.7077483,-5.54798 -12.295265,-2.194449 z"
       id="path1472"
       sodipodi:nodetypes="zzzzz" />
  </g>
  <path
     id="rect1565"
     style="fill:#000000;fill-opacity:0.29296142;stroke-width:30.9941;stroke-linecap:round;stroke-linejoin:round;stop-color:#000000"
     d="M 33.072916 3.1388265 L 33.072916 63.007006 A 29.934067 29.934067 0 0 0 63.007006 33.072916 A 29.934067 29.934067 0 0 0 33.072916 3.1388265 z " />
</svg>
