<?xml version="1.0" encoding="UTF-8" standalone="no"?>
<!-- Created with Inkscape (http://www.inkscape.org/) -->

<svg
   width="250"
   height="250"
   viewBox="0 0 66.14583 66.145835"
   version="1.1"
   id="svg13952"
   inkscape:version="1.2.2 (b0a8486541, 2022-12-01)"
   sodipodi:docname="planets.svg"
   xmlns:inkscape="http://www.inkscape.org/namespaces/inkscape"
   xmlns:sodipodi="http://sodipodi.sourceforge.net/DTD/sodipodi-0.dtd"
   xmlns="http://www.w3.org/2000/svg"
   xmlns:svg="http://www.w3.org/2000/svg">
  <sodipodi:namedview
     id="namedview13954"
     pagecolor="#ffffff"
     bordercolor="#000000"
     borderopacity="0.25"
     inkscape:showpageshadow="2"
     inkscape:pageopacity="0.0"
     inkscape:pagecheckerboard="0"
     inkscape:deskcolor="#d1d1d1"
     inkscape:document-units="px"
     showgrid="false"
     inkscape:zoom="1.5376122"
     inkscape:cx="30.241695"
     inkscape:cy="121.29196"
     inkscape:window-width="1920"
     inkscape:window-height="1012"
     inkscape:window-x="0"
     inkscape:window-y="0"
     inkscape:window-maximized="1"
     inkscape:current-layer="layer1" />
  <defs
     id="defs13949" />
  <g
     inkscape:label="Layer 1"
     inkscape:groupmode="layer"
     id="layer1">
    <circle
       style="fill:#99c1f1;fill-opacity:0.25;stroke-width:0.793999;stroke-linecap:square;stop-color:#000000"
       id="path14175"
       cx="33.072918"
       cy="33.072918"
       r="33.072918" />
    <circle
       style="fill:#1a5fb4;fill-opacity:1;stroke-width:0.793999;stroke-linecap:square;stop-color:#000000;stroke:none"
       id="circle14540"
       cx="33.072918"
       cy="33.072918"
       r="29.934067" />
    <path
       id="path15430"
       style="fill:#f6f5f4;fill-opacity:1;stroke-width:0.793999;stroke-linecap:square;stop-color:#000000"
       d="M 33.072916 3.1388265 A 29.934067 29.934067 0 0 0 12.36307 11.478886 C 16.14635 12.524156 21.014118 12.68241 24.295158 12.659175 C 27.063275 12.639575 29.237565 9.7737248 31.997013 9.5539387 C 37.023574 9.1535803 41.732588 13.463649 46.745467 12.918074 C 48.867244 12.687152 51.62898 12.36421 53.824621 11.50214 A 29.934067 29.934067 0 0 0 33.072916 3.1388265 z " />
    <path
       id="path15438"
       style="fill:#f6f5f4;fill-opacity:1;stroke:none;stroke-width:0.793999;stroke-linecap:square;stop-color:#000000"
       d="M 55.343908 50.102884 C 52.776394 50.143209 50.877637 54.546856 48.112308 55.360444 C 45.674923 56.077549 43.012869 55.099408 40.490551 55.404369 C 38.127313 55.690097 35.921926 56.932514 33.545239 57.066283 C 30.258487 57.251275 26.98196 55.27046 23.743253 55.860156 C 21.479407 56.272351 18.488341 56.721152 15.803686 57.505533 A 29.934067 29.934067 0 0 0 33.072916 63.007006 A 29.934067 29.934067 0 0 0 57.1531 50.81912 C 56.852597 50.563259 56.521882 50.363872 56.164013 50.23931 C 55.882392 50.141288 55.609513 50.098713 55.343908 50.102884 z " />
    <path
       id="path15497"
       style="fill:#2ec27e;fill-opacity:1;stroke:none;stroke-width:0.793999;stroke-linecap:square;stop-color:#000000"
       d="m 55.322721,13.051916 c -4.201742,1.063285 -8.393926,5.546369 -8.625314,9.597864 -0.156075,2.732814 6.052348,5.547083 5.681307,5.929871 -6.488953,15.52432 -18.861951,15.987396 -5.466849,21.185269 5.414042,1.987936 8.371008,-7.226432 8.755537,-7.226432 0.273144,0 1.990184,2.871963 3.927409,4.368726 2.234359,-4.269558 3.404918,-9.015436 3.412195,-13.834298 -9.57e-4,-7.393647 -2.738186,-14.525354 -7.684285,-20.021 z"
       sodipodi:nodetypes="csccsccc" />
    <path
       id="path15553"
       style="fill:#26a269;fill-opacity:1;stroke:none;stroke-width:0.793999;stroke-linecap:square;stop-color:#000000"
       d="M 56.34023 14.243575 C 54.413759 15.946218 53.026277 18.02601 52.738899 20.158976 C 52.372612 22.877608 58.249039 23.078536 58.755069 25.774654 C 59.406461 29.245241 55.850965 32.219349 54.158967 35.318774 C 52.876318 37.668352 48.205677 40.138444 49.957157 42.162801 C 51.71792 44.197887 54.762765 38.318636 57.373241 38.972298 C 59.138714 39.414369 59.119961 42.492103 60.779752 43.238704 C 60.900911 43.293203 61.025418 43.345844 61.151822 43.397351 A 29.934067 29.934067 0 0 0 63.007006 33.072916 A 29.934067 29.934067 0 0 0 56.34023 14.243575 z " />
    <path
       id="path15564"
       style="fill:#2ec27e;fill-opacity:1;stroke:none;stroke-width:0.793999;stroke-linecap:square;stop-color:#000000"
       d="M 6.8982869 18.580778 A 29.934067 29.934067 0 0 0 3.1388265 33.072916 A 29.934067 29.934067 0 0 0 4.4426228 41.797448 C 6.7771383 40.322205 9.2283849 38.438647 11.321789 39.400695 C 15.686343 41.406476 12.660268 53.042979 17.42736 52.453645 C 22.849123 51.783378 17.822735 41.099459 20.547066 36.364188 C 22.665917 32.681326 29.418423 28.44073 30.145446 27.977103 C 30.872471 27.513477 32.573282 21.311654 30.347501 19.654614 C 27.62471 17.62756 24.059552 22.85906 20.665405 22.81101 C 16.803369 22.756336 11.284962 20.572357 6.8982869 18.580778 z " />
    <path
       id="path15569"
       style="fill:#865e3c;fill-opacity:1;stroke:none;stroke-width:0.793999;stroke-linecap:square;stop-color:#000000"
       d="M 5.0870279 22.482348 A 29.934067 29.934067 0 0 0 3.1388265 33.072916 A 29.934067 29.934067 0 0 0 3.8850341 39.713338 C 6.6652608 37.252599 9.1954655 34.51931 10.969873 33.265669 C 15.208234 30.271214 19.653602 32.279972 18.214909 26.865543 C 17.445645 23.970469 11.02068 22.91024 5.0870279 22.482348 z " />
    <path
       id="circle16488"
       style="fill:#000000;fill-opacity:0.51714867;stroke-width:0.793999;stroke-linecap:square;stop-color:#000000;stroke:none"
       d="M 33.072916 3.1388265 A 29.934067 29.934067 0 0 0 30.476692 3.2628499 A 29.934067 29.934067 0 0 1 57.715339 33.072916 A 29.934067 29.934067 0 0 1 30.427083 62.877298 A 29.934067 29.934067 0 0 0 33.072916 63.007006 A 29.934067 29.934067 0 0 0 63.007006 33.072916 A 29.934067 29.934067 0 0 0 33.072916 3.1388265 z " />
  </g>
</svg>
