<?xml version="1.0" encoding="UTF-8" standalone="no"?>
<!-- Created with Inkscape (http://www.inkscape.org/) -->

<svg
   width="210mm"
   height="60mm"
   viewBox="0 0 210 60"
   version="1.1"
   id="svg5"
   inkscape:version="1.2.2 (b0a8486541, 2022-12-01)"
   sodipodi:docname="solarSystem.svg"
   inkscape:export-filename="solarSystem.png"
   inkscape:export-xdpi="96"
   inkscape:export-ydpi="96"
   xmlns:inkscape="http://www.inkscape.org/namespaces/inkscape"
   xmlns:sodipodi="http://sodipodi.sourceforge.net/DTD/sodipodi-0.dtd"
   xmlns="http://www.w3.org/2000/svg"
   xmlns:svg="http://www.w3.org/2000/svg">
  <sodipodi:namedview
     id="namedview7"
     pagecolor="#ffffff"
     bordercolor="#000000"
     borderopacity="0.25"
     inkscape:showpageshadow="2"
     inkscape:pageopacity="0.0"
     inkscape:pagecheckerboard="0"
     inkscape:deskcolor="#d1d1d1"
     inkscape:document-units="mm"
     showgrid="false"
     inkscape:zoom="1.4877245"
     inkscape:cx="493.70701"
     inkscape:cy="199.29766"
     inkscape:window-width="1920"
     inkscape:window-height="1012"
     inkscape:window-x="0"
     inkscape:window-y="0"
     inkscape:window-maximized="1"
     inkscape:current-layer="layer1" />
  <defs
     id="defs2" />
  <g
     inkscape:label="Layer 1"
     inkscape:groupmode="layer"
     id="layer1">
    <rect
       style="fill:#000000;fill-opacity:1;stroke:none;stroke-width:0.794001;stroke-linecap:square;stroke-dasharray:none;stop-color:#000000"
       id="rect8030"
       width="210"
       height="60"
       x="-7.2191141e-13"
       y="-9.6307211e-08" />
    <circle
       style="fill:none;stroke:#77767b;stroke-width:0.79375;stroke-linecap:square;stop-color:#000000"
       id="path234"
       cx="-0.32601753"
       cy="30"
       r="72.528275" />
    <g
       id="g12682"
       transform="translate(-0.26079547,-15.379833)">
      <path
         sodipodi:type="star"
         style="fill:#f5c211;fill-opacity:1;stroke:none;stroke-width:0.533897;stroke-linecap:square;stop-color:#000000"
         id="path9103"
         inkscape:flatsided="false"
         sodipodi:sides="25"
         sodipodi:cx="11.988972"
         sodipodi:cy="-30.212646"
         sodipodi:r1="37.910378"
         sodipodi:r2="35.635754"
         sodipodi:arg1="0.85346132"
         sodipodi:arg2="0.97912503"
         inkscape:rounded="0.1"
         inkscape:randomized="0"
         d="m 36.910449,-1.6448905 c -0.387768,0.3382751 -4.618564,0.72325684 -5.045672,1.01026429 C 31.43767,-0.34761876 29.482695,3.4241068 29.022983,3.6553203 28.563272,3.8865338 24.369653,3.2072646 23.884588,3.3790378 23.399523,3.550811 20.567977,6.7178584 20.065208,6.8274822 19.562438,6.9371062 15.669497,5.2362669 15.156953,5.2820127 14.644409,5.3277585 11.114209,7.6911305 10.599972,7.6722767 10.085736,7.6534229 6.7380807,5.0378836 6.2302624,4.9547276 5.722444,4.8715717 1.7154048,6.2827689 1.222013,6.1366221 0.72862122,5.9904753 -1.8634033,2.6245799 -2.3345875,2.4177471 -2.8057717,2.2109144 -7.0378729,2.5812661 -7.4794186,2.3170092 -7.9209644,2.0527523 -9.5944916,-1.8520075 -9.9994355,-2.169521 -10.404379,-2.4870345 -14.595624,-3.1807988 -14.95758,-3.5465615 c -0.361956,-0.3657628 -1.011831,-4.5640367 -1.325091,-4.9722804 -0.313259,-0.4082436 -4.200296,-2.1225321 -4.459919,-2.5668181 -0.259623,-0.444287 0.154987,-4.672282 -0.0469,-5.145604 -0.201892,-0.473323 -3.540484,-3.10042 -3.681461,-3.595314 -0.140976,-0.494894 1.312067,-4.48695 1.234228,-4.99561 -0.07784,-0.508661 -2.65821,-3.883498 -2.671682,-4.397903 -0.01347,-0.514405 2.386704,-4.019686 2.43781,-4.531724 0.05111,-0.512037 -1.608911,-4.42256 -1.494033,-4.924155 0.114878,-0.501594 3.311377,-3.29985 3.488216,-3.783092 0.176839,-0.483242 -0.458518,-4.683737 -0.222507,-5.141004 0.23601,-0.457268 4.027983,-2.372674 4.319443,-2.796756 0.291461,-0.424082 0.720686,-4.650618 1.062999,-5.034826 0.342314,-0.384208 4.491497,-1.296413 4.879266,-1.634688 0.387768,-0.338275 1.8546049,-4.325283 2.2817127,-4.61229 0.4271078,-0.287008 4.6727933,-0.138695 5.1325049,-0.369908 0.4597115,-0.231214 2.8719934,-3.728175 3.35705867,-3.899948 0.48506531,-0.171773 4.56048083,1.02774 5.06325013,0.918116 0.5027693,-0.109624 3.7089238,-2.896812 4.2214681,-2.942557 0.5125443,-0.04575 4.1616165,2.129596 4.6758525,2.14845 0.514236,0.01885 4.312809,-1.883431 4.820627,-1.800275 0.507819,0.08316 3.501263,3.097643 3.994655,3.24379 0.493391,0.146147 4.645704,-0.751707 5.116888,-0.544874 0.471184,0.206832 2.620911,3.871053 3.062457,4.13531 0.441546,0.264257 4.686693,0.427249 5.091637,0.744762 0.404944,0.317514 1.575879,4.401232 1.937834,4.766995 0.361956,0.365762 4.4332,1.579358 4.746459,1.987602 0.31326,0.408244 0.431828,4.654864 0.691451,5.09915 0.259622,0.444287 3.901152,2.632233 4.103043,3.105555 0.201892,0.473322 -0.739356,4.616014 -0.59838,5.110908 0.140977,0.494894 3.123981,3.519713 3.201819,4.028373 0.07784,0.508661 -1.864084,4.287123 -1.850612,4.801529 0.01347,0.514405 2.150518,4.186036 2.099413,4.698074 -0.05111,0.512038 -2.871685,3.688856 -2.986563,4.190451 -0.114878,0.501595 1.04193,4.589337 0.865091,5.072579 -0.176838,0.483241 -3.698846,2.858805 -3.934857,3.316072 -0.236011,0.457267 -0.132125,4.7042718 -0.423586,5.1283534 -0.29146,0.4240817 -4.293596,1.8491246 -4.63591,2.2333326 -0.342314,0.384208 -1.297879,4.5236203 -1.685648,4.8618955 z"
         transform="matrix(1.4867095,0,0,1.4867095,-17.760304,90.205051)" />
      <circle
         style="fill:#f6d32d;fill-opacity:1;stroke:none;stroke-width:0.79375;stroke-linecap:square;stop-color:#000000"
         id="path448"
         cx="0"
         cy="45.195648"
         r="50.065891" />
    </g>
    <ellipse
       style="fill:none;stroke:#77767b;stroke-width:0.79375;stroke-linecap:square;stop-color:#000000"
       id="circle1748"
       cx="-0.32601753"
       cy="30"
       rx="119.10599"
       ry="112.23045" />
    <ellipse
       style="fill:none;stroke:#77767b;stroke-width:0.793751;stroke-linecap:square;stop-color:#000000"
       id="ellipse7021"
       cx="-0.32601753"
       cy="30"
       rx="180.77667"
       ry="170.35297" />
    <g
       id="g12739"
       transform="translate(-12.3066,-15.195644)">
      <circle
         style="fill:#1c71d8;fill-opacity:1;stroke:none;stroke-width:0.79375;stroke-linecap:square;stop-color:#000000"
         id="circle7017"
         cx="131.08662"
         cy="45.195644"
         r="14.860014" />
      <circle
         style="fill:none;fill-opacity:1;stroke:#77767b;stroke-width:0.793749;stroke-linecap:square;stop-color:#000000"
         id="circle7019"
         cx="131.08662"
         cy="45.195644"
         r="24.958385" />
      <circle
         style="fill:#9a9996;fill-opacity:1;stroke:none;stroke-width:0.793749;stroke-linecap:square;stop-color:#000000"
         id="circle7025"
         cx="146.7899"
         cy="25.492235"
         r="4.2966938" />
      <path
         id="rect8084"
         style="fill:#ffffff;fill-opacity:1;stroke:none;stroke-width:0.793752;stroke-linecap:square;stop-color:#000000"
         d="m 131.08657,30.335616 a 14.860014,14.860014 0 0 0 -9.08368,3.108337 h 10.58127 c 0.73289,0 1.32291,-0.590021 1.32291,-1.322916 v -1.302246 c 0,-0.07359 -0.007,-0.145237 -0.0181,-0.215491 a 14.860014,14.860014 0 0 0 -2.80242,-0.267684 z" />
      <path
         id="rect8086"
         style="fill:#ffffff;fill-opacity:1;stroke:none;stroke-width:0.793752;stroke-linecap:square;stop-color:#000000"
         d="m 131.1522,30.552657 c -0.73289,0 -1.32292,0.590022 -1.32292,1.322917 v 1.301729 c 0,0.732895 0.59003,1.322917 1.32292,1.322917 h 10.25002 a 14.860014,14.860014 0 0 0 -7.7928,-3.947563 z" />
      <path
         id="rect8098"
         style="fill:#ffffff;fill-opacity:1;stroke:none;stroke-width:0.793751;stroke-linecap:square;stop-color:#000000"
         d="m 122.36617,56.685429 c -0.19791,0 -0.38518,0.04367 -0.55345,0.120923 a 14.860014,14.860014 0 0 0 8.9917,3.238562 c 0.13992,-0.209901 0.22169,-0.462585 0.22169,-0.734839 v -1.301729 c 0,-0.732896 -0.59002,-1.322917 -1.32292,-1.322917 z" />
      <path
         id="rect8100"
         style="fill:#ffffff;fill-opacity:1;stroke:none;stroke-width:0.793751;stroke-linecap:square;stop-color:#000000"
         d="m 131.16305,57.895691 c -0.73289,0 -1.32291,0.590022 -1.32291,1.322917 v 0.779797 a 14.860014,14.860014 0 0 0 1.24643,0.05736 14.860014,14.860014 0 0 0 7.66155,-2.136821 c -0.0804,-0.01513 -0.16317,-0.02325 -0.24805,-0.02325 z" />
      <path
         id="rect8110"
         style="fill:#26a269;fill-opacity:1;stroke:none;stroke-width:0.79375;stroke-linecap:square;stop-color:#000000"
         d="m 139.33982,36.056714 c -1.135,0 -2.04846,0.913978 -2.04846,2.04897 v 3.824056 c 0,1.134993 0.91346,2.048971 2.04846,2.048971 h 6.55618 a 14.860014,14.860014 0 0 0 -3.09335,-7.921997 z" />
      <path
         id="rect8955"
         style="fill:#26a269;fill-opacity:1;stroke:none;stroke-width:0.79375;stroke-linecap:square;stop-color:#000000"
         d="m 143.66358,41.690479 c -1.13499,0 -2.04897,0.913977 -2.04897,2.04897 v 3.824056 c 0,1.134993 0.91398,2.048971 2.04897,2.048971 h 1.60972 a 14.860014,14.860014 0 0 0 0.67335,-4.416785 14.860014,14.860014 0 0 0 -0.42013,-3.505212 z" />
      <path
         id="rect8959"
         style="fill:#26a269;fill-opacity:1;stroke:none;stroke-width:0.79375;stroke-linecap:square;stop-color:#000000"
         d="m 119.0563,36.488729 a 14.860014,14.860014 0 0 0 -2.41794,5.272546 14.860014,14.860014 0 0 0 -0.0904,0.410311 14.860014,14.860014 0 0 0 -0.0222,0.102319 14.860014,14.860014 0 0 0 -0.2992,2.921786 14.860014,14.860014 0 0 0 0.54983,3.9672 h 8.14524 c 1.135,0 2.04897,-0.913462 2.04897,-2.048454 v -3.824573 c 0,-1.134992 -0.91397,-2.048454 -2.04897,-2.048454 h -4.25865 v -2.751253 c 0,-0.983157 -0.68548,-1.800397 -1.60662,-2.001428 z" />
      <path
         id="rect8961"
         style="fill:#cdab8f;fill-opacity:1;stroke:none;stroke-width:0.79375;stroke-linecap:square;stop-color:#000000"
         d="m 116.39445,47.420878 a 14.860014,14.860014 0 0 0 3.83904,7.921997 h 0.21239 c 1.13499,0 2.04845,-0.913978 2.04845,-2.04897 v -3.824056 c 0,-1.134993 -0.91346,-2.048971 -2.04845,-2.048971 z" />
      <path
         id="rect8978"
         style="fill:#ffffff;fill-opacity:1;stroke:none;stroke-width:0.79375;stroke-linecap:square;stop-color:#000000"
         d="m 138.39207,36.033976 c -0.6078,0 -1.09709,0.489288 -1.09709,1.097091 0,0.607802 0.48929,1.097091 1.09709,1.097091 h 5.8198 a 14.860014,14.860014 0 0 0 -1.42679,-2.194182 z" />
      <path
         id="rect8980"
         style="fill:#ffffff;fill-opacity:1;stroke:none;stroke-width:0.79375;stroke-linecap:square;stop-color:#000000"
         d="m 140.11393,46.147054 c -0.6078,0 -1.09709,0.489288 -1.09709,1.097091 0,0.607802 0.48929,1.09709 1.09709,1.09709 h 5.49062 a 14.860014,14.860014 0 0 0 0.30644,-2.194181 z" />
      <rect
         style="fill:#ffffff;fill-opacity:1;stroke:none;stroke-width:0.79375;stroke-linecap:square;stop-color:#000000"
         id="rect8982"
         width="8.6723557"
         height="2.1942348"
         x="128.19601"
         y="43.163204"
         ry="1.0971174" />
      <path
         id="rect8986"
         style="fill:#ffffff;fill-opacity:1;stroke:none;stroke-width:0.79375;stroke-linecap:square;stop-color:#000000"
         d="m 116.75463,41.309106 a 14.860014,14.860014 0 0 0 -0.42116,2.194699 h 5.39657 c 0.6078,0 1.09709,-0.489805 1.09709,-1.097608 0,-0.607802 -0.48929,-1.097091 -1.09709,-1.097091 z" />
      <path
         id="rect8988"
         style="fill:#ffffff;fill-opacity:1;stroke:none;stroke-width:0.79375;stroke-linecap:square;stop-color:#000000"
         d="m 116.30763,46.396134 c -0.01,0 -0.0193,2.71e-4 -0.0289,5.17e-4 a 14.860014,14.860014 0 0 0 0.34417,2.193665 h 6.16293 c 0.6078,0 1.09709,-0.489288 1.09709,-1.097091 0,-0.607802 -0.48929,-1.097091 -1.09709,-1.097091 z" />
      <path
         id="rect8992"
         style="fill:#ffffff;fill-opacity:1;stroke:none;stroke-width:0.79375;stroke-linecap:square;stop-color:#000000"
         d="m 137.7859,50.197453 c -0.6078,0 -1.09709,0.489288 -1.09709,1.09709 0,0.607803 0.48929,1.097091 1.09709,1.097091 h 6.29316 a 14.860014,14.860014 0 0 0 0.89814,-1.932182 c -0.19153,-0.163588 -0.44036,-0.261999 -0.71314,-0.261999 z" />
      <rect
         style="fill:#ffffff;fill-opacity:1;stroke:none;stroke-width:0.79375;stroke-linecap:square;stop-color:#000000"
         id="rect8994"
         width="9.6042032"
         height="3.447417"
         x="119.63871"
         y="48.887035"
         ry="1.7237085" />
      <rect
         style="fill:#ffffff;fill-opacity:1;stroke:none;stroke-width:0.79375;stroke-linecap:square;stop-color:#000000"
         id="rect9000"
         width="9.6042032"
         height="3.447417"
         x="119.60496"
         y="35.481915"
         ry="1.7237085" />
      <circle
         style="fill:#5e5c64;fill-opacity:1;stroke:none;stroke-width:0.793748;stroke-linecap:square;stop-color:#000000"
         id="path9489"
         cx="148.36566"
         cy="23.087963"
         r="0.41043529" />
      <circle
         style="fill:#5e5c64;fill-opacity:1;stroke:none;stroke-width:0.79375;stroke-linecap:square;stop-color:#000000"
         id="circle9491"
         cx="150.04245"
         cy="24.414255"
         r="0.65069479" />
      <circle
         style="fill:#5e5c64;fill-opacity:1;stroke:none;stroke-width:0.79375;stroke-linecap:square;stop-color:#000000"
         id="circle9493"
         cx="144.97272"
         cy="27.207432"
         r="1.2833357" />
      <circle
         style="fill:#5e5c64;fill-opacity:1;stroke:none;stroke-width:0.793748;stroke-linecap:square;stop-color:#000000"
         id="circle9495"
         cx="147.69194"
         cy="27.638775"
         r="0.41043529" />
      <circle
         style="fill:#5e5c64;fill-opacity:1;stroke:none;stroke-width:0.793748;stroke-linecap:square;stop-color:#000000"
         id="circle9497"
         cx="144.58971"
         cy="24.987518"
         r="0.41043529" />
      <path
         id="rect9551"
         style="fill:#000000;fill-opacity:0.360995;stroke:none;stroke-width:0.79375;stroke-linecap:square;stop-color:#000000"
         d="m 146.79001,21.195605 v 8.593274 a 4.2966938,4.2966938 0 0 0 4.29638,-4.296895 4.2966938,4.2966938 0 0 0 -4.29638,-4.296379 z" />
      <path
         id="rect9608"
         style="fill:#000000;fill-opacity:0.360995;stroke:none;stroke-width:0.79375;stroke-linecap:square;stop-color:#000000"
         d="m 131.08657,30.335616 v 29.72015 A 14.860014,14.860014 0 0 0 145.94665,45.195691 14.860014,14.860014 0 0 0 131.08657,30.335616 Z" />
    </g>
    <g
       id="g12711"
       transform="translate(-11.484625,-15.195644)">
      <circle
         style="fill:#ff7800;fill-opacity:1;stroke:none;stroke-width:0.79375;stroke-linecap:square;stop-color:#000000"
         id="path1802"
         cx="83.990067"
         cy="45.195644"
         r="9.2027216" />
      <ellipse
         style="fill:#e66100;fill-opacity:1;stroke:none;stroke-width:0.79375;stroke-linecap:square;stop-color:#000000"
         id="path9665"
         cx="90.492874"
         cy="46.892979"
         rx="1.692856"
         ry="1.6973357" />
      <ellipse
         style="fill:#e66100;fill-opacity:1;stroke:none;stroke-width:0.793754;stroke-linecap:square;stop-color:#000000"
         id="ellipse9979"
         cx="88.87336"
         cy="48.379429"
         rx="1.2178351"
         ry="1.2210578" />
      <ellipse
         style="fill:#c64600;fill-opacity:1;stroke:none;stroke-width:0.793755;stroke-linecap:square;stop-color:#000000"
         id="ellipse9981"
         cx="88.217842"
         cy="45.901855"
         rx="2.0095382"
         ry="2.0148559" />
      <path
         id="ellipse9983"
         style="fill:#c64600;fill-opacity:1;stroke:none;stroke-width:0.793755;stroke-linecap:square;stop-color:#000000"
         d="m 80.917542,36.528003 a 9.2027216,9.2027216 0 0 0 -4.921147,4.111377 3.2049313,3.2134123 0 0 0 2.405538,1.093473 3.2049313,3.2134123 0 0 0 3.204972,-3.21324 3.2049313,3.2134123 0 0 0 -0.689363,-1.99161 z" />
      <path
         id="ellipse9985"
         style="fill:#e66100;fill-opacity:1;stroke:none;stroke-width:0.79375;stroke-linecap:square;stop-color:#000000"
         d="m 87.099076,36.534721 a 2.9552155,2.9630358 0 0 0 -0.464054,1.5906 2.9552155,2.9630358 0 0 0 2.955375,2.963127 2.9552155,2.9630358 0 0 0 2.119767,-0.90072 9.2027216,9.2027216 0 0 0 -4.611088,-3.653007 z" />
      <path
         id="ellipse9987"
         style="fill:#e66100;fill-opacity:1;stroke:none;stroke-width:0.79375;stroke-linecap:square;stop-color:#000000"
         d="m 76.004146,44.597795 a 2.9552155,2.9630358 0 0 0 -1.204061,0.259415 9.2027216,9.2027216 0 0 0 -0.01292,0.338481 9.2027216,9.2027216 0 0 0 1.678451,5.29115 2.9552155,2.9630358 0 0 0 2.493388,-2.92592 2.9552155,2.9630358 0 0 0 -2.954858,-2.963126 z" />
      <path
         id="ellipse9989"
         style="fill:#e66100;fill-opacity:1;stroke:none;stroke-width:0.79375;stroke-linecap:square;stop-color:#000000"
         d="m 84.665633,49.38665 a 2.9552155,2.9630358 0 0 0 -2.955375,2.963126 2.9552155,2.9630358 0 0 0 0.695048,1.90531 9.2027216,9.2027216 0 0 0 1.584916,0.143144 9.2027216,9.2027216 0 0 0 6.271969,-2.469617 1.8456247,1.8505087 0 0 0 -1.730127,-1.206644 1.8456247,1.8505087 0 0 0 -1.168404,0.419095 2.9552155,2.9630358 0 0 0 -2.698027,-1.754414 z" />
      <path
         id="ellipse9993"
         style="fill:#c64600;fill-opacity:1;stroke:none;stroke-width:0.793755;stroke-linecap:square;stop-color:#000000"
         d="m 86.214893,51.827844 a 2.0095382,2.0148559 0 0 0 -2.00918,2.014864 2.0095382,2.0148559 0 0 0 0.07596,0.54467 9.2027216,9.2027216 0 0 0 3.890719,-1.000456 2.0095382,2.0148559 0 0 0 -1.957503,-1.559078 z" />
      <path
         id="ellipse9995"
         style="fill:#c64600;fill-opacity:1;stroke:none;stroke-width:0.793755;stroke-linecap:square;stop-color:#000000"
         d="m 77.524984,48.916911 a 2.0095382,2.0148559 0 0 0 -1.56993,0.75706 9.2027216,9.2027216 0 0 0 2.633947,2.965193 2.0095382,2.0148559 0 0 0 0.945162,-1.707389 2.0095382,2.0148559 0 0 0 -2.009179,-2.014864 z" />
      <ellipse
         style="fill:#c64600;fill-opacity:1;stroke:none;stroke-width:0.793754;stroke-linecap:square;stop-color:#000000"
         id="ellipse10017"
         cx="90.607666"
         cy="42.179878"
         rx="0.73098046"
         ry="0.73291481" />
      <ellipse
         style="fill:#c64600;fill-opacity:1;stroke:none;stroke-width:0.793754;stroke-linecap:square;stop-color:#000000"
         id="ellipse10033"
         cx="82.636292"
         cy="38.141102"
         rx="0.73098046"
         ry="0.73291481" />
      <ellipse
         style="fill:#c64600;fill-opacity:1;stroke:none;stroke-width:0.793755;stroke-linecap:square;stop-color:#000000"
         id="ellipse10035"
         cx="88.906372"
         cy="41.978291"
         rx="0.39472049"
         ry="0.39576504" />
      <ellipse
         style="fill:#c64600;fill-opacity:1;stroke:none;stroke-width:0.793755;stroke-linecap:square;stop-color:#000000"
         id="ellipse10037"
         cx="79.367203"
         cy="48.721615"
         rx="0.39472049"
         ry="0.39576504" />
      <ellipse
         style="fill:#c64600;fill-opacity:1;stroke:none;stroke-width:0.793755;stroke-linecap:square;stop-color:#000000"
         id="ellipse10039"
         cx="87.563156"
         cy="50.150665"
         rx="0.39472049"
         ry="0.39576504" />
      <ellipse
         style="fill:#c64600;fill-opacity:1;stroke:none;stroke-width:0.793755;stroke-linecap:square;stop-color:#000000"
         id="ellipse10041"
         cx="87.042358"
         cy="48.222672"
         rx="0.39472049"
         ry="0.39576504" />
      <ellipse
         style="fill:#c64600;fill-opacity:1;stroke:none;stroke-width:0.793755;stroke-linecap:square;stop-color:#000000"
         id="ellipse10043"
         cx="90.640312"
         cy="44.665508"
         rx="0.39472049"
         ry="0.39576504" />
      <path
         id="rect10161"
         style="fill:#ffa348;fill-opacity:1;stroke:none;stroke-width:0.79375;stroke-linecap:square;stop-color:#000000"
         d="m 83.990222,35.993152 a 9.2027216,9.2027216 0 0 0 -0.619083,0.02274 c -0.03938,0.07459 -0.06201,0.159594 -0.06201,0.250114 v 0.481625 c 0,0.296278 0.238572,0.534851 0.534851,0.534851 h 4.842598 a 9.2027216,9.2027216 0 0 0 -4.696354,-1.289327 z m -7.695137,4.164087 a 9.2027216,9.2027216 0 0 0 -0.881084,1.703255 h 8.702312 c 0.471784,0 0.851627,-0.379842 0.851627,-0.851628 0,-0.471784 -0.379843,-0.851627 -0.851627,-0.851627 z m 8.34471,4.335652 c -0.360445,0 -0.650606,0.290162 -0.650606,0.650607 0,0.360443 0.290161,0.650606 0.650606,0.650606 h 8.530229 a 9.2027216,9.2027216 0 0 0 0.02274,-0.598413 9.2027216,9.2027216 0 0 0 -0.02687,-0.7028 z m -9.391675,3.563607 a 9.2027216,9.2027216 0 0 0 0.447001,1.124479 h 3.329513 c 0.311468,0 0.562239,-0.250771 0.562239,-0.562239 0,-0.311469 -0.250771,-0.56224 -0.562239,-0.56224 z m 13.881323,1.267106 c -0.296278,0 -0.534851,0.238574 -0.534851,0.534851 0,0.296279 0.238573,0.534851 0.534851,0.534851 h 2.454631 a 9.2027216,9.2027216 0 0 0 0.625801,-1.069702 z" />
      <path
         id="path10175"
         style="fill:#000000;fill-opacity:0.360995;stroke:none;stroke-width:0.79375;stroke-linecap:square;stop-color:#000000"
         d="m 83.990222,35.993152 a 9.2027216,9.2027216 0 0 0 -0.30334,0.01137 v 18.38234 a 9.2027216,9.2027216 0 0 0 0.30334,0.01137 9.2027216,9.2027216 0 0 0 9.202539,-9.202539 9.2027216,9.2027216 0 0 0 -9.202539,-9.202539 z" />
    </g>
    <circle
       style="fill:#ff7800;fill-opacity:0.43909;stroke:none;stroke-width:0.79375;stroke-linecap:square;stop-color:#000000"
       id="circle11983"
       cx="181.13997"
       cy="30"
       r="24.813078" />
    <circle
       style="fill:#ff7800;fill-opacity:1;stroke:none;stroke-width:0.79375;stroke-linecap:square;stop-color:#000000"
       id="circle7023"
       cx="181.13997"
       cy="29.999996"
       r="23.753403" />
    <path
       id="path11819"
       style="fill:#e66100;fill-opacity:1;stroke:none;stroke-width:0.79375;stroke-linecap:square;stop-color:#000000"
       d="m 186.78767,6.929307 c -2.40491,0.918861 -6.00092,4.045231 -6.43319,4.045231 -0.43691,0 -8.56041,0.355688 -12.77494,1.058851 -0.77001,0.128472 -1.55659,0.234695 -2.34662,0.339514 a 23.753403,23.753403 0 0 0 -5.06843,6.516398 c 2.05582,-1.579398 4.15822,-3.055281 6.13245,-3.431315 5.38566,-1.025815 11.07853,1.502448 16.44344,0.373104 4.3628,-0.918396 9.84264,-1.679975 13.44362,-4.211113 a 23.753403,23.753403 0 0 0 -9.39633,-4.69067 z" />
    <path
       id="path11821"
       style="fill:#26a269;fill-opacity:1;stroke:none;stroke-width:0.79375;stroke-linecap:square;stop-color:#000000"
       d="m 199.07168,14.42394 c -2.40377,0.557 -4.85448,2.343894 -7.23728,3.108854 -3.49926,1.123378 -6.7607,3.176872 -10.40609,3.643706 -4.58179,0.586751 -9.28471,-2.060571 -13.81052,-1.136365 -2.69621,0.550585 -6.05879,1.12777 -8.91781,2.221053 a 23.753403,23.753403 0 0 0 -1.30638,7.545793 c 3.08647,-1.415058 5.63954,-5.620848 9.10849,-6.429582 3.70416,-0.863569 7.58447,0.706633 11.38794,0.721403 2.5478,0.0099 5.13209,0.07029 7.63157,-0.423747 2.33244,-0.46102 4.38946,-1.964557 6.73654,-2.344043 1.83474,-0.296647 5.12124,0.240845 5.57537,0.07958 0.27809,-0.09875 2.75667,-1.078064 4.5992,-1.936316 a 23.753403,23.753403 0 0 0 -3.36103,-5.050338 z" />
    <path
       id="path11823"
       style="fill:#e66100;fill-opacity:1;stroke:none;stroke-width:0.79375;stroke-linecap:square;stop-color:#000000"
       d="m 203.20114,22.596051 c -1.3866,-0.0255 -2.96113,1.303448 -4.36976,1.799374 -2.00399,0.705538 -3.83371,1.892989 -5.88439,2.448429 -3.0191,0.817744 -6.18467,0.965949 -9.29866,1.260388 -3.57748,0.338266 -7.38452,-0.639658 -10.76472,0.57981 -2.54923,0.919683 -4.01352,3.835301 -6.52776,4.846732 -2.29738,0.924191 -5.92537,1.21938 -8.45375,1.330152 a 23.753403,23.753403 0 0 0 0.99839,3.451469 c 1.01596,-0.04606 1.86852,-0.203772 2.06447,-0.282154 0.44462,-0.177841 7.71104,-1.731938 8.10442,-2.076359 0.39339,-0.344421 3.63755,-2.51844 5.69319,-3.268534 2.40761,-0.878527 5.02486,-1.036148 7.56646,-1.365808 2.59963,-0.337187 5.2213,-0.490511 7.83932,-0.623735 2.60403,-0.132513 5.38103,0.747306 7.82019,-0.174149 2.56073,-0.967379 5.37754,-2.667288 6.4425,-5.176945 a 23.753403,23.753403 0 0 0 -0.6935,-2.661853 c -0.17512,-0.05522 -0.35398,-0.08346 -0.5364,-0.08682 z" />
    <path
       id="path11825"
       style="fill:#e66100;fill-opacity:1;stroke:none;stroke-width:0.79375;stroke-linecap:square;stop-color:#000000"
       d="m 204.83412,31.586717 c -6.20385,0.107089 -16.09454,6.566277 -16.66048,6.484876 -0.72921,-0.104884 -8.69008,2.274034 -13.10411,3.080432 -4.14397,0.757057 -11.06736,1.64486 -12.5305,1.64486 -0.37615,0 -0.90525,-0.07906 -1.49604,-0.165364 a 23.753403,23.753403 0 0 0 3.4892,4.329968 c 0.51519,-0.538874 1.05691,-1.01786 1.67069,-1.276924 2.38932,-1.008474 5.08736,-1.01975 7.65018,-1.416968 3.58871,-0.556223 7.27158,-0.535502 10.8102,-1.351856 3.93416,-0.907608 7.50656,-3.108316 11.46286,-3.913973 2.24415,-0.456995 4.75351,0.220979 6.99803,-0.03204 a 23.753403,23.753403 0 0 0 1.70997,-7.383011 z" />
    <path
       id="path11827"
       style="fill:#e66100;fill-opacity:1;stroke:none;stroke-width:0.79375;stroke-linecap:square;stop-color:#000000"
       d="m 202.6389,40.081806 c -3.29798,0.505523 -7.55552,2.897161 -10.71562,3.512447 -2.88192,0.561122 -5.75178,1.264492 -8.51059,2.269112 -3.48309,1.268361 -8.46783,3.645974 -12.42302,5.605859 a 23.753403,23.753403 0 0 0 4.41524,1.56838 c 1.77128,-1.303286 4.30362,-3.143498 6.20014,-3.951697 3.59499,-1.532007 7.57679,-1.939483 11.41842,-2.655652 1.80475,-0.336447 3.72444,-0.291029 5.60224,-0.359151 a 23.753403,23.753403 0 0 0 4.01319,-5.989298 z" />
    <path
       id="path11942"
       style="fill:#c64600;fill-opacity:1;stroke:none;stroke-width:0.79375;stroke-linecap:square;stop-color:#000000"
       d="m 204.88993,30.090168 c -6.19537,0.02411 -16.2123,6.569906 -16.78192,6.487976 -0.72921,-0.104884 -8.69008,2.273518 -13.10411,3.079915 -4.14397,0.757057 -11.06684,1.644861 -12.52999,1.644861 -0.55245,0 -1.43104,-0.170329 -2.35799,-0.283704 a 23.753403,23.753403 0 0 0 3.66851,5.193998 c 0.72388,-0.816328 1.46329,-1.646647 2.35283,-2.022098 2.38931,-1.008474 5.08735,-1.01975 7.65017,-1.416968 3.58871,-0.556223 7.27158,-0.535501 10.8102,-1.351856 3.93416,-0.907608 7.50656,-3.108832 11.46286,-3.914489 2.46354,-0.501671 5.24666,0.363399 7.64812,-0.135909 a 23.753403,23.753403 0 0 0 1.18132,-7.281726 z" />
    <path
       id="path11944"
       style="fill:#e5a50a;fill-opacity:1;stroke:none;stroke-width:0.79375;stroke-linecap:square;stop-color:#000000"
       d="m 201.74955,41.803664 c -2.98912,0.851401 -6.4283,2.629592 -9.08885,3.147612 -2.88192,0.561122 -5.75177,1.264492 -8.51059,2.269112 -3.1434,1.144667 -7.53787,3.204588 -11.27321,5.036385 a 23.753403,23.753403 0 0 0 4.55476,1.199927 c 1.5853,-1.137391 3.43909,-2.386597 4.91081,-3.01377 3.59499,-1.532007 7.57731,-1.939483 11.41894,-2.655651 1.11863,-0.208538 2.28129,-0.269521 3.45095,-0.302308 a 23.753403,23.753403 0 0 0 4.53719,-5.681307 z" />
    <path
       id="path11946"
       style="fill:#c64600;fill-opacity:1;stroke:none;stroke-width:0.79375;stroke-linecap:square;stop-color:#000000"
       d="m 203.67295,23.378949 c -1.3866,-0.0255 -2.96062,1.303448 -4.36924,1.799374 -2.004,0.705538 -3.83424,1.892472 -5.88492,2.447912 -3.01909,0.817744 -6.18467,0.966465 -9.29865,1.260905 -3.57749,0.338266 -7.38452,-0.639658 -10.76472,0.57981 -2.54924,0.919683 -4.013,3.835301 -6.52725,4.846732 -2.38559,0.959676 -6.2133,1.242194 -8.74675,1.343071 a 23.753403,23.753403 0 0 0 1.13119,3.443201 c 1.0849,-0.0357 2.0186,-0.204374 2.22467,-0.286805 0.44462,-0.177842 7.71104,-1.731938 8.10442,-2.076359 0.39339,-0.344421 3.63704,-2.51844 5.69267,-3.268534 2.40761,-0.878527 5.02487,-1.036149 7.56647,-1.365808 2.59963,-0.337187 5.22181,-0.490511 7.83983,-0.623735 2.60404,-0.132513 5.38104,0.747306 7.82019,-0.174149 2.38073,-0.89938 4.98242,-2.43199 6.19239,-4.659664 a 23.753403,23.753403 0 0 0 -0.69401,-3.239596 c -0.0944,-0.01559 -0.18994,-0.02458 -0.28629,-0.02636 z" />
    <path
       id="path11948"
       style="fill:#2ec27e;fill-opacity:1;stroke:none;stroke-width:0.79375;stroke-linecap:square;stop-color:#000000"
       d="m 200.11968,15.718435 c -2.53726,0.429868 -5.1346,2.384193 -7.65587,3.193603 -3.49925,1.123378 -6.76069,3.176872 -10.40608,3.643706 -4.58179,0.586751 -9.28523,-2.060571 -13.81104,-1.136365 -3.0821,0.629388 -7.03588,1.292233 -10.11153,2.722831 a 23.753403,23.753403 0 0 0 -0.74879,5.858041 23.753403,23.753403 0 0 0 0.0532,1.416451 c 3.35506,-1.108588 6.007,-5.80046 9.69191,-6.659542 3.70416,-0.863569 7.58447,0.706116 11.38794,0.720886 2.5478,0.0099 5.13209,0.07029 7.63157,-0.423747 2.33244,-0.46102 4.38946,-1.964557 6.73654,-2.344043 1.83474,-0.296647 5.12124,0.240845 5.57537,0.07958 0.27801,-0.09872 2.75476,-1.077718 4.59714,-1.935799 a 23.753403,23.753403 0 0 0 -2.94039,-5.135604 z" />
    <path
       id="path11950"
       style="fill:#c64600;fill-opacity:1;stroke:none;stroke-width:0.79375;stroke-linecap:square;stop-color:#000000"
       d="m 184.81725,6.532949 c -2.10663,1.273019 -4.33742,3.145028 -4.67206,3.145028 -0.43691,0 -8.55989,0.355688 -12.77442,1.05885 -0.0435,0.0073 -0.0877,0.01355 -0.13126,0.02067 a 23.753403,23.753403 0 0 0 -5.44411,5.480286 c 1.45385,-1.004047 2.90537,-1.8121 4.29276,-2.076359 5.38567,-1.025815 11.07802,1.502449 16.44293,0.373104 4.05138,-0.852841 9.0676,-1.569136 12.64677,-3.693831 A 23.753403,23.753403 0 0 0 184.81725,6.532949 Z" />
    <circle
       style="fill:#a51d2d;fill-opacity:1;stroke:none;stroke-width:0.79375;stroke-linecap:square;stop-color:#000000"
       id="path12037"
       cx="196.62395"
       cy="29.52824"
       r="1.7098552" />
    <circle
       style="fill:#c01c28;fill-opacity:1;stroke:none;stroke-width:0.793747;stroke-linecap:square;stop-color:#000000"
       id="circle12299"
       cx="168.07872"
       cy="46.866425"
       r="1.1310883" />
    <circle
       style="fill:#c01c28;fill-opacity:1;stroke:none;stroke-width:0.793747;stroke-linecap:square;stop-color:#000000"
       id="circle12301"
       cx="188.01314"
       cy="11.164677"
       r="1.1310883" />
    <circle
       style="fill:#1a5fb4;fill-opacity:1;stroke:none;stroke-width:0.793747;stroke-linecap:square;stop-color:#000000"
       id="circle12303"
       cx="170.35265"
       cy="22.676601"
       r="1.1310883" />
    <path
       id="rect13767"
       style="fill:#000000;fill-opacity:0.25;stroke:none;stroke-width:0.793999;stroke-linecap:square;stroke-dasharray:none;stop-color:#000000"
       d="M 181.13985 6.2466471 L 181.13985 53.753308 A 23.753403 23.753403 0 0 0 204.89344 30.000236 A 23.753403 23.753403 0 0 0 181.13985 6.2466471 z " />
  </g>
</svg>
